<?xml version="1.0" encoding="utf-8"?>
<!-- Generator: Adobe Illustrator 25.2.1, SVG Export Plug-In . SVG Version: 6.00 Build 0)  -->
<svg version="1.1" id="Layer_1" xmlns="http://www.w3.org/2000/svg" xmlns:xlink="http://www.w3.org/1999/xlink" x="0px" y="0px"
	 viewBox="0 0 720 720" style="enable-background:new 0 0 720 720;" xml:space="preserve">
<style type="text/css">
	.st0{fill:#FFFFFF;}
	.st1{fill:#2C80D8;}
	.st2{fill:none;}
	.st3{enable-background:new    ;}
	.st4{fill:#52A6FF;}
</style>
<rect class="st0" width="720" height="720"/>
<path class="st1" d="M362.6,248c0,8.4,0,16.6,0,25c0.1,57.8,0.1,115.4,0.3,173.2c0,3.5,1.2,6.2,3.2,8.1c1.9,2.3,4.7,3.8,8.7,3.8
	c38.3-0.1,90.5-0.3,128.8-0.4c11,0,43.8,0,54.8-0.1c31.3-0.4,61.7-13.5,82.5-37.2c42.8-48.6,34.8-124.5-17-163
	c-34.2-25.4-96.5-21.6-136.5-21.5c-33,0.1-79.8,0.3-112.8,0.3C368,236.3,362.6,241.7,362.6,248z"/>
<rect x="410.4" y="311.8" class="st2" width="296.6" height="124.5"/>
<g class="st3">
	<path class="st0" d="M429.4,349.3h-23.9v16.2h28.1v10H393V315h40.4v10.1h-28v14.4h23.9v9.8H429.4z"/>
	<path class="st0" d="M442.6,375.5v-36.1h-6.7v-8.8h6.7v-3.8c0-5,1.4-8.9,4.3-11.7c2.9-2.8,6.9-4.2,12.1-4.2c1.7,0,3.7,0.3,6.1,0.8
		L465,321c-1-0.2-2.2-0.4-3.7-0.4c-4.5,0-6.8,2.1-6.8,6.3v3.6h8.9v8.8h-8.9v36.1h-11.9V375.5z"/>
	<path class="st0" d="M473,375.5v-36.1h-6.7v-8.8h6.7v-3.8c0-5,1.4-8.9,4.3-11.7c2.9-2.8,6.9-4.2,12.1-4.2c1.7,0,3.7,0.3,6.1,0.8
		l-0.1,9.3c-1-0.2-2.2-0.4-3.7-0.4c-4.5,0-6.8,2.1-6.8,6.3v3.6h8.9v8.8h-8.9v36.1H473V375.5z"/>
	<path class="st0" d="M519.9,376.3c-6.6,0-11.9-2-16.1-6.1c-4.1-4-6.2-9.4-6.2-16.1v-1.2c0-4.5,0.9-8.5,2.6-12.1s4.2-6.3,7.4-8.2
		c3.2-1.9,6.8-2.9,10.9-2.9c6.1,0,11,1.9,14.5,5.8s5.3,9.4,5.3,16.5v4.9h-28.6c0.4,2.9,1.6,5.3,3.5,7.1c2,1.8,4.4,2.7,7.4,2.7
		c4.6,0,8.2-1.7,10.8-5l5.9,6.6c-1.8,2.5-4.2,4.5-7.3,6C527,375.6,523.6,376.3,519.9,376.3z M518.5,339.4c-2.4,0-4.3,0.8-5.8,2.4
		s-2.4,3.9-2.8,6.9h16.7v-1c-0.1-2.7-0.8-4.7-2.2-6.2S521.1,339.4,518.5,339.4z"/>
	<path class="st0" d="M563.9,366.6c2.2,0,4-0.6,5.4-1.8c1.4-1.2,2.1-2.8,2.2-4.9h11.2c0,3-0.9,5.8-2.5,8.4c-1.6,2.5-3.9,4.5-6.7,5.9
		s-6,2.1-9.4,2.1c-6.4,0-11.5-2-15.2-6.1s-5.6-9.7-5.6-16.9v-0.8c0-6.9,1.8-12.4,5.5-16.6c3.7-4.1,8.7-6.2,15.1-6.2
		c5.6,0,10.1,1.6,13.5,4.8c3.4,3.2,5.1,7.4,5.2,12.8h-11.2c-0.1-2.3-0.8-4.2-2.2-5.7s-3.2-2.2-5.5-2.2c-2.8,0-4.9,1-6.3,3.1
		c-1.4,2-2.1,5.3-2.1,9.9v1.2c0,4.6,0.7,8,2.1,10C558.8,365.6,561,366.6,563.9,366.6z"/>
	<path class="st0" d="M603.9,319.5v11h7.7v8.8h-7.7v22.4c0,1.7,0.3,2.9,1,3.6c0.6,0.7,1.9,1.1,3.7,1.1c1.3,0,2.5-0.1,3.5-0.3v9.1
		c-2.4,0.7-4.8,1.1-7.3,1.1c-8.4,0-12.7-4.2-12.9-12.7v-24.2h-6.6v-8.8h6.6v-11h12V319.5z"/>
</g>
<path class="st1" d="M328.8,236.1c-33-0.1-67.7-0.3-100.7-0.3c-40.1-0.1-102.3-3.9-136.5,21.5c-51.8,38.7-59.8,114.5-17,163
	c20.8,23.7,51.3,36.7,82.5,37.2c11,0.1,43.8,0.1,54.8,0.1c38.3,0.1,78.3,0.3,116.6,0.4c3.8,0,6.8-1.5,8.7-3.8
	c1.9-1.9,3.2-4.6,3.2-8.1c0.1-57.8,0.1-115.4,0.3-173.2c0-8.4,0-16.6,0-25C340.7,241.7,335.2,236.3,328.8,236.1z M114.2,422.5
	c-50.7-29.2-58.5-100.7-15.6-140.2c16.8-15.4,38.4-22.7,61-22.9c13.4,0,48.4,0.1,61.7,0.1c31.3,0.1,64.3,0.3,95.5,0.3
	c-0.1,53.9-0.1,107.6-0.3,161.4c0,4.3,0,8.8,0,13.1c-26.5-0.1-52.9-0.1-79.4-0.3C205,434,143.2,439.1,114.2,422.5z"/>
<g class="st3">
	<path class="st4" d="M131.9,362.3c0-2.4-0.8-4.2-2.5-5.4c-1.7-1.3-4.6-2.6-9-4c-4.3-1.4-7.7-2.8-10.3-4.1
		c-6.9-3.7-10.3-8.7-10.3-15c0-3.3,0.9-6.2,2.8-8.7c1.8-2.6,4.5-4.6,7.9-6s7.3-2.2,11.6-2.2c4.3,0,8.2,0.8,11.5,2.3
		c3.4,1.6,6,3.8,7.9,6.6c1.9,2.9,2.8,6.1,2.8,9.7H132c0-2.8-0.9-4.9-2.6-6.5c-1.7-1.5-4.2-2.3-7.3-2.3c-3,0-5.4,0.6-7.1,1.9
		s-2.5,3-2.5,5.1c0,2,1,3.6,3,4.9s4.9,2.6,8.7,3.7c7.1,2.1,12.2,4.8,15.5,7.9c3.2,3.2,4.9,7.1,4.9,11.8c0,5.2-2,9.3-5.9,12.3
		c-4,3-9.3,4.5-16,4.5c-4.6,0-8.9-0.9-12.7-2.6c-3.8-1.7-6.7-4-8.7-7s-3-6.4-3-10.3h12.5c0,6.7,4,10,12,10c3,0,5.3-0.6,6.9-1.8
		C131.1,366.1,131.9,364.5,131.9,362.3z"/>
	<path class="st4" d="M166.1,378.1h-12.5v-60.4h12.5V378.1z"/>
	<path class="st4" d="M177.6,378.1v-60.4h18.6c5.3,0,10.1,1.2,14.3,3.6s7.5,5.8,9.8,10.2c2.4,4.4,3.5,9.4,3.5,15v2.8
		c0,5.6-1.2,10.6-3.5,15s-5.6,7.8-9.8,10.2c-4.2,2.4-9,3.6-14.2,3.7h-18.7V378.1z M190.1,327.8v40.3h6c4.9,0,8.6-1.6,11.2-4.8
		c2.6-3.2,3.9-7.7,3.9-13.7v-3.2c0-6.1-1.3-10.8-3.8-14s-6.3-4.8-11.2-4.8h-6.1V327.8z"/>
</g>
<path class="st4" d="M294.8,341c-6.6,0-13.3,0-19.9-0.1c-0.7,0-1.2,0-1.9,0c0-4.9,0-9.6,0-14.5c0-2.4,0-4.9,0-7.3
	c0-0.8-0.7-1.5-1.5-1.5c-4.1,0-6.5,0-10.7,0c-0.8,0-1.5,0.7-1.5,1.5c0,6.6,0,13.3-0.1,19.9c0,0.7,0,1.2,0,1.9c-4.9,0-9.6,0-14.5,0
	c-2.4,0-4.9,0-7.3,0c-0.8,0-1.5,0.7-1.5,1.5c0,4.1,0,6.5,0,10.7c0,0.4,0.1,0.8,0.4,1.1c0.3,0.3,0.5,0.4,1.1,0.4
	c6.6,0,13.3,0,19.9,0.1c0.7,0,1.2,0,1.9,0c0,4.9,0,11.4,0,16.1c0,2.4,0,4.9,0,7.3c0,0.8,0.7,1.5,1.5,1.5c4.1,0,6.5,0,10.7,0
	c0.4,0,0.8-0.1,1.1-0.4c0.3-0.3,0.4-0.5,0.4-1.1c0-6.6,0-14.9,0.1-21.5c0-0.7,0-1.2,0-1.9c4.9,0,9.6,0,14.5,0c2.4,0,4.9,0,7.3,0
	c0.8,0,1.5-0.7,1.5-1.5c0-4.1,0-6.5,0-10.7C296.3,341.8,295.7,341.1,294.8,341z"/>
</svg>
