<svg id="Layer_2" data-name="Layer 2" xmlns="http://www.w3.org/2000/svg" viewBox="0 0 659.99 222.56"><defs><style>.cls-1{fill:#fff;}.cls-2{fill:#2c80d8;}.cls-3{fill:none;}.cls-4{isolation:isolate;}.cls-5{fill:#52a6ff;}</style></defs><path class="cls-1" d="M114.2,422.5C63.5,393.3,55.7,321.8,98.6,282.3c16.8-15.4,38.4-22.7,61-22.9,13.4,0,48.4.1,61.7.1,31.3.1,64.3.3,95.5.3-.1,53.9-.1,107.6-.3,161.4v13.1c-26.5-.1-52.9-.1-79.4-.3C205,434,143.2,439.1,114.2,422.5Z" transform="translate(-47.01 -235.54)"/><path class="cls-2" d="M362.6,248v25c.1,57.8.1,115.4.3,173.2a11.93,11.93,0,0,0,11.9,11.9c38.3-.1,90.5-.3,128.8-.4,11,0,43.8,0,54.8-.1,31.3-.4,61.7-13.5,82.5-37.2,42.8-48.6,34.8-124.5-17-163-34.2-25.4-96.5-21.6-136.5-21.5-33,.1-79.8.3-112.8.3A12.13,12.13,0,0,0,362.6,248Z" transform="translate(-47.01 -235.54)"/><rect class="cls-3" x="363.39" y="76.26" width="296.6" height="124.5"/><g class="cls-4"><path class="cls-1" d="M429.4,349.3H405.5v16.2h28.1v10H393V315h40.4v10.1h-28v14.4h23.9v9.8Z" transform="translate(-47.01 -235.54)"/><path class="cls-1" d="M442.6,375.5V339.4h-6.7v-8.8h6.7v-3.8c0-5,1.4-8.9,4.3-11.7s6.9-4.2,12.1-4.2a31,31,0,0,1,6.1.8L465,321a18.16,18.16,0,0,0-3.7-.4c-4.5,0-6.8,2.1-6.8,6.3v3.6h8.9v8.8h-8.9v36.1H442.6Z" transform="translate(-47.01 -235.54)"/><path class="cls-1" d="M473,375.5V339.4h-6.7v-8.8H473v-3.8c0-5,1.4-8.9,4.3-11.7s6.9-4.2,12.1-4.2a31,31,0,0,1,6.1.8l-.1,9.3a18.16,18.16,0,0,0-3.7-.4c-4.5,0-6.8,2.1-6.8,6.3v3.6h8.9v8.8h-8.9v36.1H473Z" transform="translate(-47.01 -235.54)"/><path class="cls-1" d="M519.9,376.3c-6.6,0-11.9-2-16.1-6.1s-6.2-9.4-6.2-16.1v-1.2a27.9,27.9,0,0,1,2.6-12.1,18.47,18.47,0,0,1,7.4-8.2,20.89,20.89,0,0,1,10.9-2.9c6.1,0,11,1.9,14.5,5.8s5.3,9.4,5.3,16.5v4.9H509.7a11.74,11.74,0,0,0,3.5,7.1,10.54,10.54,0,0,0,7.4,2.7,13,13,0,0,0,10.8-5l5.9,6.6a18.91,18.91,0,0,1-7.3,6A25.28,25.28,0,0,1,519.9,376.3Zm-1.4-36.9a7.54,7.54,0,0,0-5.8,2.4,12.16,12.16,0,0,0-2.8,6.9h16.7v-1a9.12,9.12,0,0,0-2.2-6.2C523,340,521.1,339.4,518.5,339.4Z" transform="translate(-47.01 -235.54)"/><path class="cls-1" d="M563.9,366.6a8,8,0,0,0,5.4-1.8,6.47,6.47,0,0,0,2.2-4.9h11.2a15.85,15.85,0,0,1-2.5,8.4,16.71,16.71,0,0,1-6.7,5.9,20.93,20.93,0,0,1-9.4,2.1c-6.4,0-11.5-2-15.2-6.1s-5.6-9.7-5.6-16.9v-.8c0-6.9,1.8-12.4,5.5-16.6s8.7-6.2,15.1-6.2q8.4,0,13.5,4.8c3.4,3.2,5.1,7.4,5.2,12.8H571.4a8.56,8.56,0,0,0-2.2-5.7,8,8,0,0,0-11.8.9q-2.1,3-2.1,9.9v1.2c0,4.6.7,8,2.1,10S561,366.6,563.9,366.6Z" transform="translate(-47.01 -235.54)"/><path class="cls-1" d="M603.9,319.5v11h7.7v8.8h-7.7v22.4c0,1.7.3,2.9,1,3.6s1.9,1.1,3.7,1.1a18.27,18.27,0,0,0,3.5-.3v9.1a25.82,25.82,0,0,1-7.3,1.1c-8.4,0-12.7-4.2-12.9-12.7V339.4h-6.6v-8.8h6.6v-11h12Z" transform="translate(-47.01 -235.54)"/></g><path class="cls-2" d="M328.8,236.1c-33-.1-67.7-.3-100.7-.3-40.1-.1-102.3-3.9-136.5,21.5-51.8,38.7-59.8,114.5-17,163,20.8,23.7,51.3,36.7,82.5,37.2,11,.1,43.8.1,54.8.1,38.3.1,78.3.3,116.6.4a11,11,0,0,0,8.7-3.8,11.13,11.13,0,0,0,3.2-8.1c.1-57.8.1-115.4.3-173.2v-25C340.7,241.7,335.2,236.3,328.8,236.1ZM114.2,422.5C63.5,393.3,55.7,321.8,98.6,282.3c16.8-15.4,38.4-22.7,61-22.9,13.4,0,48.4.1,61.7.1,31.3.1,64.3.3,95.5.3-.1,53.9-.1,107.6-.3,161.4v13.1c-26.5-.1-52.9-.1-79.4-.3C205,434,143.2,439.1,114.2,422.5Z" transform="translate(-47.01 -235.54)"/><g class="cls-4"><path class="cls-5" d="M131.9,362.3a6.14,6.14,0,0,0-2.5-5.4c-1.7-1.3-4.6-2.6-9-4a75.65,75.65,0,0,1-10.3-4.1c-6.9-3.7-10.3-8.7-10.3-15a13.94,13.94,0,0,1,2.8-8.7,17.39,17.39,0,0,1,7.9-6,30.35,30.35,0,0,1,11.6-2.2,27.76,27.76,0,0,1,11.5,2.3,19.1,19.1,0,0,1,7.9,6.6,17.2,17.2,0,0,1,2.8,9.7H132a8.43,8.43,0,0,0-2.6-6.5,10.82,10.82,0,0,0-7.3-2.3c-3,0-5.4.6-7.1,1.9a6.08,6.08,0,0,0-2.5,5.1,5.69,5.69,0,0,0,3,4.9,33.18,33.18,0,0,0,8.7,3.7c7.1,2.1,12.2,4.8,15.5,7.9a16.07,16.07,0,0,1,4.9,11.8,14.72,14.72,0,0,1-5.9,12.3c-4,3-9.3,4.5-16,4.5a31,31,0,0,1-12.7-2.6,19.78,19.78,0,0,1-8.7-7,18.06,18.06,0,0,1-3-10.3h12.5c0,6.7,4,10,12,10q4.5,0,6.9-1.8A5.55,5.55,0,0,0,131.9,362.3Z" transform="translate(-47.01 -235.54)"/><path class="cls-5" d="M166.1,378.1H153.6V317.7h12.5Z" transform="translate(-47.01 -235.54)"/><path class="cls-5" d="M177.6,378.1V317.7h18.6a28.39,28.39,0,0,1,14.3,3.6,24.72,24.72,0,0,1,9.8,10.2,30.76,30.76,0,0,1,3.5,15v2.8a31.92,31.92,0,0,1-3.5,15,24.72,24.72,0,0,1-9.8,10.2,29.42,29.42,0,0,1-14.2,3.7H177.6v-.1Zm12.5-50.3v40.3h6c4.9,0,8.6-1.6,11.2-4.8s3.9-7.7,3.9-13.7v-3.2c0-6.1-1.3-10.8-3.8-14s-6.3-4.8-11.2-4.8h-6.1v.2Z" transform="translate(-47.01 -235.54)"/></g><path class="cls-5" d="M294.8,341c-6.6,0-13.3,0-19.9-.1H273V319.1a1.54,1.54,0,0,0-1.5-1.5H260.8a1.54,1.54,0,0,0-1.5,1.5c0,6.6,0,13.3-.1,19.9v1.9H237.4a1.54,1.54,0,0,0-1.5,1.5v10.7a1.5,1.5,0,0,0,.4,1.1,1.25,1.25,0,0,0,1.1.4c6.6,0,13.3,0,19.9.1h1.9v23.4a1.54,1.54,0,0,0,1.5,1.5h10.7a1.5,1.5,0,0,0,1.1-.4,1.25,1.25,0,0,0,.4-1.1c0-6.6,0-14.9.1-21.5v-1.9h21.8a1.54,1.54,0,0,0,1.5-1.5V342.5A1.61,1.61,0,0,0,294.8,341Z" transform="translate(-47.01 -235.54)"/></svg>